<?xml version="1.0" standalone="no"?>
<!DOCTYPE svg PUBLIC "-//W3C//DTD SVG 20010904//EN"
 "http://www.w3.org/TR/2001/REC-SVG-20010904/DTD/svg10.dtd">
<svg version="1.0" xmlns="http://www.w3.org/2000/svg"
 width="500.000000pt" height="500.000000pt" viewBox="0 0 500.000000 500.000000"
 preserveAspectRatio="xMidYMid meet">
<metadata>
Created by potrace 1.14, written by Peter Selinger 2001-2017
</metadata>
<g transform="translate(0.000000,500.000000) scale(0.100000,-0.100000)"
fill="#000000" stroke="none">
<path d="M0 2500 l0 -2500 2500 0 2500 0 0 2500 0 2500 -2500 0 -2500 0 0
-2500z m3464 1487 l30 -99 68 -36 68 -37 0 -91 c0 -89 -1 -91 -27 -105 -23
-11 -205 -14 -1094 -17 -935 -3 -1071 -1 -1103 12 l-36 15 0 93 0 93 65 35
c69 37 68 36 106 155 12 39 24 73 26 78 2 4 423 6 935 5 l931 -3 31 -98z m46
-473 c0 -51 -51 -358 -61 -371 -6 -7 -40 -22 -75 -32 -165 -52 -522 -76 -945
-66 -257 6 -286 5 -299 -10 -11 -14 -10 -19 8 -37 15 -16 38 -23 89 -27 54 -5
68 -10 71 -23 3 -17 -10 -18 -172 -18 -168 0 -176 -1 -187 -21 -8 -16 -8 -24
1 -33 6 -6 75 -18 153 -26 113 -12 142 -18 142 -30 0 -12 -27 -16 -155 -21
-85 -3 -156 -7 -157 -7 -7 -4 -2 -51 5 -56 4 -2 61 -7 127 -11 145 -7 165 -11
165 -30 0 -12 -14 -15 -58 -15 -33 0 -93 -3 -135 -6 -64 -6 -77 -10 -77 -24 0
-32 25 -40 143 -46 85 -5 117 -11 117 -20 0 -8 -19 -15 -47 -19 -106 -13 -114
-16 -111 -32 5 -29 57 -35 316 -40 361 -7 761 17 936 57 27 6 53 7 57 3 4 -4
-43 -348 -106 -763 -127 -848 -107 -770 -213 -810 -135 -52 -230 -64 -487 -64
-295 0 -457 25 -587 90 -38 19 -48 30 -53 56 -30 169 -72 424 -69 427 1 2 51
-4 111 -13 164 -25 616 -41 775 -28 175 15 213 46 73 60 -105 11 -94 29 22 37
112 7 146 17 141 43 -3 14 -21 18 -126 26 -87 6 -122 12 -122 21 0 9 31 15
108 20 156 9 154 9 166 27 20 32 -6 40 -148 46 -99 3 -136 8 -136 17 0 14 31
21 135 30 126 11 135 13 135 40 0 22 -4 24 -82 30 -46 4 -119 5 -163 3 -66 -2
-80 0 -80 12 0 11 16 17 57 22 32 4 67 12 78 18 21 11 27 35 10 45 -5 3 -153
8 -327 10 -175 1 -372 8 -438 15 -135 13 -265 36 -277 48 -9 9 -19 65 -144
802 -47 278 -91 540 -99 584 -8 43 -15 89 -15 102 l0 24 373 3 c204 1 657 3
1005 5 l632 2 0 -26z"/>
</g>
</svg>
