<?xml version="1.0" standalone="no"?>
<!DOCTYPE svg PUBLIC "-//W3C//DTD SVG 20010904//EN"
 "http://www.w3.org/TR/2001/REC-SVG-20010904/DTD/svg10.dtd">
<svg version="1.0" xmlns="http://www.w3.org/2000/svg"
 width="300.000000pt" height="300.000000pt" viewBox="0 0 300.000000 300.000000"
 preserveAspectRatio="xMidYMid meet">
<metadata>
Created by potrace 1.14, written by Peter Selinger 2001-2017
</metadata>
<g transform="translate(0.000000,300.000000) scale(0.100000,-0.100000)"
fill="#000000" stroke="none">
<path d="M2320 2628 c-51 -103 -74 -128 -118 -128 -29 0 -49 11 -96 50 -75 62
-110 78 -132 59 -19 -16 -15 -85 16 -235 13 -61 20 -140 21 -220 l1 -124 -58
-93 c-31 -50 -58 -93 -59 -94 -1 -2 -26 -7 -56 -13 -30 -5 -88 -27 -129 -47
-99 -48 -209 -159 -311 -313 -143 -215 -171 -295 -192 -542 -12 -142 -16 -160
-40 -196 -15 -21 -44 -48 -65 -59 -87 -49 -171 -39 -290 36 -194 121 -313 159
-412 131 -48 -14 -207 -135 -226 -172 -15 -29 -15 -32 4 -57 10 -14 26 -27 35
-29 8 -2 44 23 79 54 34 31 77 63 95 70 73 31 146 6 267 -91 129 -105 223
-136 405 -136 80 0 122 -4 137 -13 34 -23 114 -46 189 -56 39 -5 94 -17 120
-26 41 -14 58 -14 101 -5 81 18 118 70 86 121 -12 19 -12 22 -1 13 16 -13 194
-42 283 -45 l58 -3 19 -50 c10 -27 27 -56 36 -63 21 -15 178 -16 222 -1 25 9
31 16 31 40 0 37 -24 85 -49 99 -11 5 -35 10 -54 10 -19 0 -40 6 -46 14 -18
22 -34 274 -26 403 4 62 6 116 5 119 -1 4 11 15 27 25 15 10 36 24 45 31 14
10 32 7 102 -15 157 -52 183 -88 153 -216 -22 -91 -21 -127 3 -151 25 -25 46
-25 86 -1 57 34 69 78 69 240 l0 144 -94 88 c-107 101 -109 105 -48 201 72
112 80 136 74 213 -3 38 -14 93 -25 120 -10 28 -22 79 -26 115 -3 36 -14 99
-24 141 l-19 77 55 86 55 87 -12 54 c-13 57 -75 162 -122 206 -23 22 -31 40
-38 95 -10 67 -35 117 -62 121 -8 2 -28 -26 -49 -69z m-336 -1904 c12 -91 9
-102 -27 -109 -33 -7 -87 8 -87 23 0 14 90 131 101 132 4 0 9 -21 13 -46z"/>
</g>
</svg>
